<?xml version="1.0" standalone="no"?><!DOCTYPE svg PUBLIC "-//W3C//DTD SVG 1.1//EN" "http://www.w3.org/Graphics/SVG/1.1/DTD/svg11.dtd"><svg t="1502104715919" class="icon" style="" viewBox="0 0 1024 1024" version="1.1" xmlns="http://www.w3.org/2000/svg" p-id="8124" xmlns:xlink="http://www.w3.org/1999/xlink" width="200" height="200"><defs><style type="text/css"></style></defs><path d="M258.943152 484.017692c86.303127-18.540262 74.556102-121.668037 71.964982-144.216589-4.234619-34.758642-45.105137-95.480608-100.610572-90.694605-69.845626 6.260587-80.041254 107.147322-80.041254 107.147322C140.804656 402.907373 172.850835 502.542604 258.943152 484.017692zM350.582022 663.380756c-2.533812 7.258311-8.168373 25.799596-3.278811 41.941228 9.627669 36.232203 41.078258 37.85619 41.078258 37.85619l45.193145 0L433.574615 632.721479l-48.383948 0C363.43017 639.205147 352.935725 656.121422 350.582022 663.380756zM419.115714 311.065641c47.66658 0 86.183395-54.849212 86.183395-122.665761 0-67.75515-38.517839-122.590036-86.183395-122.590036-47.577549 0-86.211026 54.834886-86.211026 122.590036C332.904689 256.215406 371.538166 311.065641 419.115714 311.065641zM624.390344 319.172273c63.704508 8.272407 104.664058-59.708893 112.802753-111.234407 8.318805-51.448766-32.791177-111.231337-77.893244-121.501238-45.193145-10.358929-101.623687 62.017472-106.75169 109.22054C546.406022 253.352195 560.804544 310.988894 624.390344 319.172273zM780.47872 622.062721c0 0-98.552617-76.250638-156.088376-158.672836-77.984322-121.518634-188.787451-72.062246-225.842924-10.268878-36.906064 61.794391-94.410099 100.874455-102.579495 111.231337-8.284011 10.1952-119.06258 69.977771-94.46843 179.212638 24.595173 109.146862 110.955608 107.059318 110.955608 107.059318s63.643107 6.260587 137.485935-10.268878c73.869435-16.379039 137.455234 4.099365 137.455234 4.099365s172.544853 57.770751 219.762183-53.463656C854.320524 679.759795 780.47872 622.062721 780.47872 622.062721zM485.265003 787.593755 373.08854 787.593755c-48.441255-9.657964-67.727293-42.715871-70.172075-48.351218-2.384404-5.723352-16.126959-32.298614-8.856064-77.489862 20.928513-67.7398 80.636843-72.599482 80.636843-72.599482l59.7114 0 0-73.390497 50.856359 0.775666L485.265003 787.593755zM694.178662 786.819113 565.096471 786.819113c-50.01926-12.893658-52.376033-48.423873-52.376033-48.423873L512.720438 595.636862l52.376033-0.848321 0 128.298038c3.189779 13.68365 20.184539 16.156982 20.184539 16.156982l53.181409 0L638.462418 595.636862l55.716244 0L694.178662 786.819113zM876.916073 405.694859c0-24.654516-20.480287-98.877985-96.437354-98.877985-76.076799 0-86.241726 70.051449-86.241726 119.580492 0 47.261397 3.996178 113.243157 98.495309 111.143333C887.26111 535.452131 876.916073 430.480358 876.916073 405.694859z" fill="#3245df" p-id="8125"></path></svg>