<?xml version="1.0" standalone="no"?><!DOCTYPE svg PUBLIC "-//W3C//DTD SVG 1.1//EN" "http://www.w3.org/Graphics/SVG/1.1/DTD/svg11.dtd"><svg t="1502104587498" class="icon" style="" viewBox="0 0 1024 1024" version="1.1" xmlns="http://www.w3.org/2000/svg" p-id="4811" xmlns:xlink="http://www.w3.org/1999/xlink" width="200" height="200"><defs><style type="text/css"></style></defs><path d="M962.496 915.84c0 48.832-40 88.384-89.152 88.384H150.656A88.768 88.768 0 0 1 61.504 915.84V108.096c0-48.768 39.936-88.32 89.152-88.32h722.752c49.28 0 89.152 39.552 89.152 88.32V915.84h-0.064z" fill="#9DE8F7" p-id="4812"></path><path d="M873.344 1020.032H150.656c-57.984 0-105.152-46.72-105.152-104.256V108.096c0-57.408 47.168-104.192 105.152-104.192h722.752c57.856 0 105.152 46.72 105.152 104.192v807.68a104.96 104.96 0 0 1-105.216 104.256zM150.656 35.84c-40.32 0-73.152 32.448-73.152 72.384V915.84c0 40 32.832 72.448 73.152 72.448h722.752c40.384 0 73.152-32.448 73.152-72.448V108.096c0-39.872-32.768-72.384-73.152-72.384L150.656 35.84z" fill="#070707" p-id="4813"></path><path d="M871.104 294.208c0 54.208-44.096 98.112-98.432 98.112H251.392c-54.4 0-98.432-43.968-98.432-98.112V252.16c0-54.144 44.032-98.048 98.432-98.048h521.344c54.336 0 98.368 43.968 98.368 98.048v42.048z" fill="#FAD97F" p-id="4814"></path><path d="M772.672 408.32H251.392c-63.104 0-114.432-51.2-114.432-114.112V252.16c0-62.912 51.328-114.048 114.432-114.048h521.344c63.104 0 114.368 51.136 114.368 114.048v41.984c0 62.976-51.2 114.176-114.432 114.176zM251.392 170.112c-45.44 0-82.432 36.8-82.432 82.048v41.984c0 45.312 36.992 82.112 82.432 82.112h521.344c45.44 0 82.368-36.864 82.368-82.112V252.16c0-45.248-36.928-82.048-82.368-82.048H251.392z" fill="" p-id="4815"></path><path d="M556.224 337.856h-16.896V230.464a88.64 88.64 0 0 1-16 11.648 120.96 120.96 0 0 1-17.792 8.704v-16.32c9.472-4.416 17.728-9.792 24.832-16.128a63.04 63.04 0 0 0 14.976-18.368h10.88v137.856zM688.448 321.664v16.192H597.376a30.528 30.528 0 0 1 1.984-11.712 60.608 60.608 0 0 1 11.136-18.24c5.12-6.016 12.48-12.928 22.144-20.8 14.912-12.224 25.152-21.952 30.4-29.12a34.624 34.624 0 0 0 7.872-20.224 22.656 22.656 0 0 0-7.104-16.896 25.92 25.92 0 0 0-18.752-6.848 26.88 26.88 0 0 0-19.648 7.296 27.712 27.712 0 0 0-7.552 20.224l-17.28-1.792c1.216-12.928 5.696-22.784 13.44-29.568s18.176-10.176 31.296-10.176c13.184 0 23.68 3.648 31.36 10.944 7.68 7.296 11.584 16.32 11.584 27.136 0 5.44-1.152 10.88-3.392 16.192-2.304 5.312-6.016 10.88-11.264 16.768a287.04 287.04 0 0 1-26.048 24.192 295.296 295.296 0 0 0-19.52 17.28 58.752 58.752 0 0 0-7.168 9.152h67.584zM706.624 301.632l17.024-2.24A36.992 36.992 0 0 0 733.44 320a24.576 24.576 0 0 0 17.088 6.336 27.904 27.904 0 0 0 28.352-28.608 26.112 26.112 0 0 0-26.944-26.688c-3.2 0-7.168 0.64-11.968 1.856l1.792-14.784a34.752 34.752 0 0 0 22.208-5.44c5.76-3.776 8.704-9.536 8.704-17.344a20.288 20.288 0 0 0-6.336-15.36c-4.224-4.032-9.6-6.08-16.256-6.08s-12.032 2.048-16.512 6.144a31.68 31.68 0 0 0-8.448 18.56l-16.96-3.008c1.984-11.328 6.72-20.032 14.144-26.304s16.448-9.344 27.328-9.344c7.488 0 14.464 1.6 20.736 4.8a34.496 34.496 0 0 1 19.584 30.912 29.248 29.248 0 0 1-4.736 16.192 32.704 32.704 0 0 1-14.272 11.648c8.192 1.856 14.528 5.76 19.008 11.648 4.48 5.888 6.72 13.312 6.72 22.144a40.512 40.512 0 0 1-13.12 30.528 46.72 46.72 0 0 1-33.28 12.48 43.648 43.648 0 0 1-30.208-10.752 42.432 42.432 0 0 1-13.44-27.904z" fill="" p-id="4816"></path><path d="M352.576 563.2c0 39.68-32 71.808-71.68 71.808h-56.064a71.68 71.68 0 0 1 0-143.36h56.064c39.68 0 71.68 32.128 71.68 71.552z" fill="#F2385A" p-id="4817"></path><path d="M280.896 651.008h-56.064A87.936 87.936 0 0 1 136.96 563.2c0-48.256 39.424-87.552 87.872-87.552h56.064a87.744 87.744 0 0 1 0 175.36z m-56.064-143.36a55.808 55.808 0 0 0-55.872 55.552c0 30.656 25.088 55.808 55.872 55.808h56.064a55.68 55.68 0 1 0 0-111.36h-56.064z" fill="#070707" p-id="4818"></path><path d="M611.904 563.2c0 39.68-32.128 71.808-71.872 71.808h-56a71.68 71.68 0 0 1 0-143.36h56A71.68 71.68 0 0 1 611.904 563.2z" fill="#FAD97F" p-id="4819"></path><path d="M540.032 651.008h-56A87.936 87.936 0 0 1 396.16 563.2c0-48.256 39.424-87.552 87.872-87.552h56c48.448 0 87.872 39.296 87.872 87.552 0 48.448-39.552 87.808-87.872 87.808z m-56-143.36a55.808 55.808 0 0 0-55.872 55.552c0 30.656 25.088 55.808 55.872 55.808h56a56 56 0 0 0 55.872-55.808 55.744 55.744 0 0 0-55.872-55.552h-56z" fill="" p-id="4820"></path><path d="M865.856 563.2c0 39.68-32.128 71.808-71.808 71.808h-56.064a71.744 71.744 0 0 1 0-143.36h56.064c39.68 0 71.808 32.128 71.808 71.552z" fill="#FAD97F" p-id="4821"></path><path d="M794.048 651.008h-56.064A87.936 87.936 0 0 1 650.048 563.2c0-48.256 39.424-87.552 87.936-87.552h56.064c48.448 0 87.808 39.296 87.808 87.552 0 48.448-39.36 87.808-87.808 87.808z m-56.064-143.36a55.808 55.808 0 0 0-55.936 55.552c0 30.656 25.088 55.808 55.936 55.808h56.064a56 56 0 0 0 55.808-55.808 55.808 55.808 0 0 0-55.808-55.552h-56.064z" fill="" p-id="4822"></path><path d="M352.576 780.672c0 39.552-32 71.552-71.68 71.552h-56.064a71.68 71.68 0 0 1-71.872-71.552 71.68 71.68 0 0 1 71.872-71.552h56.064c39.68 0 71.68 32.064 71.68 71.552z" fill="#FAD97F" p-id="4823"></path><path d="M280.896 868.224h-56.064c-48.448 0-87.872-39.232-87.872-87.552s39.424-87.552 87.872-87.552h56.064c48.32 0 87.68 39.232 87.68 87.552s-39.36 87.552-87.68 87.552z m-56.064-143.104a55.872 55.872 0 0 0-55.872 55.552c0 30.656 25.088 55.552 55.872 55.552h56.064c30.72 0 55.68-24.96 55.68-55.552a55.68 55.68 0 0 0-55.68-55.552h-56.064z" fill="" p-id="4824"></path><path d="M611.904 780.672a71.68 71.68 0 0 1-71.808 71.552h-56.064c-39.744 0-71.808-32-71.808-71.552a71.68 71.68 0 0 1 71.808-71.552h56.064c39.808 0 71.808 32.064 71.808 71.552z" fill="#FAD97F" p-id="4825"></path><path d="M540.032 868.224h-56c-48.384 0-87.808-39.232-87.808-87.552s39.424-87.552 87.808-87.552h56.064c48.448 0 87.808 39.232 87.808 87.552s-39.424 87.552-87.872 87.552z m-56-143.104a55.808 55.808 0 0 0-55.808 55.552 55.68 55.68 0 0 0 55.808 55.552h56.064c30.656 0 55.808-24.96 55.808-55.552a55.808 55.808 0 0 0-55.808-55.552h-56.064z" fill="" p-id="4826"></path><path d="M865.856 780.672a71.68 71.68 0 0 1-71.744 71.552h-56.256a71.68 71.68 0 0 1-71.872-71.552c0-39.488 32.256-71.552 71.872-71.552h56.256c39.488 0 71.744 32.064 71.744 71.552z" fill="#FAD97F" p-id="4827"></path><path d="M794.112 868.224h-56.256c-48.512 0-87.872-39.232-87.872-87.552s39.36-87.552 87.872-87.552h56.256c48.384 0 87.744 39.232 87.744 87.552s-39.36 87.552-87.744 87.552z m-56.256-143.104a55.872 55.872 0 0 0-55.872 55.552c0 30.656 25.152 55.552 55.872 55.552h56.256c30.656 0 55.744-24.96 55.744-55.552a55.808 55.808 0 0 0-55.744-55.552h-56.256z" fill="" p-id="4828"></path></svg>