<?xml version="1.0" standalone="no"?><!DOCTYPE svg PUBLIC "-//W3C//DTD SVG 1.1//EN" "http://www.w3.org/Graphics/SVG/1.1/DTD/svg11.dtd"><svg t="1502104461382" class="icon" style="" viewBox="0 0 1024 1024" version="1.1" xmlns="http://www.w3.org/2000/svg" p-id="3492" xmlns:xlink="http://www.w3.org/1999/xlink" width="200" height="200"><defs><style type="text/css"></style></defs><path d="M512 0c-281.6 0-512 230.4-512 512s230.4 512 512 512 512-230.4 512-512-230.4-512-512-512z m163.84 291.84c7.68-2.56 51.2 23.04 51.2 23.04s38.4 23.04 51.2 38.4c12.8 17.92 12.8 69.12 12.8 71.68 0 0 2.56 56.32-10.24 56.32-12.8 2.56-51.2-23.04-51.2-23.04s-43.52-25.6-51.2-40.96c-10.24-15.36-10.24-69.12-10.24-69.12s0-51.2 7.68-56.32z m-40.96 266.24c-12.8 2.56-51.2-23.04-51.2-23.04s-43.52-25.6-51.2-40.96c-7.68-15.36-7.68-66.56-7.68-66.56s0-51.2 7.68-56.32c7.68-2.56 51.2 23.04 51.2 23.04s38.4 23.04 51.2 38.4 12.8 66.56 10.24 69.12c0 0 2.56 56.32-10.24 56.32z m-104.96-355.84c7.68-2.56 51.2 23.04 51.2 23.04s38.4 23.04 51.2 38.4c12.8 17.92 12.8 69.12 12.8 71.68 0 0 2.56 56.32-10.24 56.32-12.8 2.56-51.2-23.04-51.2-23.04s-43.52-25.6-51.2-40.96-10.24-69.12-10.24-69.12 0-51.2 7.68-56.32z m43.52 358.4c2.56 2.56 51.2 28.16 46.08 38.4-5.12 12.8-46.08 33.28-46.08 33.28s-43.52 25.6-61.44 25.6c-15.36 0-61.44-25.6-61.44-25.6s-46.08-23.04-46.08-33.28 43.52-35.84 43.52-35.84 38.4-23.04 58.88-25.6c20.48-5.12 64 23.04 66.56 23.04z m-194.56-225.28c0-2.56 0-53.76 12.8-71.68 12.8-15.36 51.2-38.4 51.2-38.4s43.52-25.6 51.2-23.04c7.68 5.12 7.68 56.32 7.68 56.32s0 51.2-7.68 66.56c-7.68 15.36-51.2 40.96-51.2 40.96s-38.4 25.6-51.2 23.04c-15.36 2.56-12.8-51.2-12.8-53.76z m7.68 99.84c12.8-17.92 51.2-38.4 51.2-38.4s43.52-28.16 51.2-23.04 7.68 56.32 7.68 56.32 0 51.2-7.68 66.56c-7.68 15.36-51.2 40.96-51.2 40.96s-38.4 23.04-51.2 23.04c-12.8-2.56-10.24-56.32-12.8-53.76 0-2.56 0-56.32 12.8-71.68z m-143.36-79.36c12.8-17.92 51.2-38.4 51.2-38.4s43.52-28.16 51.2-23.04 7.68 56.32 7.68 56.32 0 51.2-7.68 66.56c-7.68 15.36-51.2 40.96-51.2 40.96s-38.4 23.04-51.2 23.04-10.24-56.32-12.8-53.76c0-2.56 0-56.32 12.8-71.68z m-15.36 238.08c0-2.56 0-56.32 12.8-71.68 12.8-17.92 51.2-38.4 51.2-38.4s43.52-28.16 51.2-23.04c10.24 5.12 7.68 56.32 7.68 56.32s0 51.2-7.68 66.56c-7.68 15.36-53.76 43.52-53.76 43.52s-38.4 23.04-51.2 23.04-10.24-53.76-10.24-56.32z m74.24 122.88s-46.08-23.04-46.08-33.28c0-7.68 43.52-33.28 43.52-33.28s38.4-23.04 58.88-25.6c20.48-5.12 64 23.04 66.56 23.04 2.56 0 51.2 25.6 46.08 35.84-5.12 10.24-46.08 33.28-46.08 33.28s-43.52 25.6-61.44 25.6c-15.36 0-61.44-25.6-61.44-25.6z m271.36 76.8s-43.52 25.6-61.44 25.6c-15.36 0-61.44-25.6-61.44-25.6s-46.08-23.04-46.08-33.28c0-7.68 43.52-33.28 43.52-33.28s38.4-23.04 58.88-25.6c20.48-5.12 64 23.04 66.56 23.04 0 0 51.2 25.6 46.08 35.84-5.12 12.8-46.08 33.28-46.08 33.28z m148.48-81.92s-43.52 25.6-61.44 25.6c-15.36 0-61.44-25.6-61.44-25.6s-46.08-23.04-46.08-33.28c0-7.68 43.52-33.28 43.52-33.28s38.4-23.04 58.88-25.6c20.48-5.12 64 23.04 66.56 23.04 0 0 51.2 25.6 46.08 35.84-5.12 12.8-46.08 33.28-46.08 33.28z m58.88-66.56c-12.8 2.56-51.2-23.04-51.2-23.04s-43.52-25.6-51.2-40.96c-7.68-15.36-7.68-66.56-7.68-66.56s0-51.2 7.68-56.32c7.68-2.56 51.2 23.04 51.2 23.04s38.4 23.04 51.2 38.4c12.8 17.92 12.8 69.12 12.8 71.68 0 0 2.56 56.32-12.8 53.76z" fill="#37E786" p-id="3493"></path></svg>