<?xml version="1.0" standalone="no"?><!DOCTYPE svg PUBLIC "-//W3C//DTD SVG 1.1//EN" "http://www.w3.org/Graphics/SVG/1.1/DTD/svg11.dtd"><svg t="1502107722845" class="icon" style="" viewBox="0 0 1024 1024" version="1.1" xmlns="http://www.w3.org/2000/svg" p-id="17065" xmlns:xlink="http://www.w3.org/1999/xlink" width="200" height="200"><defs><style type="text/css"></style></defs><path d="M32.276 511.935c0 264.757 214.628 479.386 479.386 479.386s479.386-214.628 479.386-479.386c0 0 0 0 0 0 0-264.758-214.628-479.386-479.386-479.386-264.757 0-479.386 214.628-479.386 479.386z" fill="#D2966E" p-id="17066"></path><path d="M514.737 888.902c17.55 0 34.543-0.982 51.097-3.015 32.592-4.004 63.487-12.099 93.594-24.905 13.523-5.75 20.037-21.203 14.682-34.887l-11.188-28.593c-5.416-13.839-20.934-20.706-34.855-15.501-19.215 7.184-40.949 13.067-62.234 16.559-13.49 2.213-26.8 3.474-39.174 3.474-127.744 0-246.97-74.944-246.97-243.564 0-189.059 143.072-311.693 286.145-311.693 172.028 0 231.641 112.414 231.641 228.235 0 86.865-45.986 144.776-97.085 144.776-34.063 0-45.987-20.439-35.769-63.021l32.42-153.99c4.36-20.708-11.44-40.181-32.602-40.181h-24.547c-14.137 0-26.217 8.805-31.057 21.231l-5.528 14.539h-1.703c-8.727-19.634-20.95-31.574-35.768-37.628-8.318-3.4-17.453-4.952-27.251-4.952-97.085 0-175.434 103.897-175.434 212.905 0 78.35 45.987 131.151 115.822 131.151 27.454 0 62.647-14.391 86.864-37.806 5.831-5.638 11.033-11.792 15.33-18.402h1.703c10.22 40.879 51.949 64.723 102.195 64.723 93.678 0 202.686-78.35 202.686-236.751 0-182.247-120.932-311.693-309.991-311.693-3.988 0-7.962 0.060-11.923 0.17-210.921 5.768-383.228 164.394-383.228 401.797-0.001 224.828 160.104 327.023 332.132 327.023zM565.834 536.487l-6.812 39.019c-18.735 25.549-32.361 34.064-47.692 34.064-25.549 0-39.174-17.883-39.174-49.394 0-45.987 27.251-112.415 71.535-112.415 8.379 0 15.985 2.557 22.143 6.812 5.107 3.529 9.22 8.222 11.923 13.627l-11.923 68.287z" fill="" p-id="17067"></path><path d="M635.915 837.47c13.523-5.751 20.037-21.203 14.682-34.887l-11.188-28.592c-5.415-13.84-20.934-20.707-34.854-15.502-19.216 7.184-40.949 13.067-62.234 16.559v87.324c32.591-4.003 63.486-12.098 93.594-24.904zM554.244 136.4c-3.988 0-7.962 0.060-11.923 0.17v86.695c172.028 0 231.64 112.415 231.64 228.235 0 86.865-45.986 144.776-97.084 144.776-34.064 0-45.988-20.439-35.769-63.021l32.42-153.99c4.359-20.708-11.441-40.181-32.602-40.181h-24.547c-14.137 0.001-26.217 8.806-31.058 21.231l-5.528 14.539h-1.703c-8.726-19.634-20.95-31.574-35.767-37.628v93.835c5.106 3.529 9.22 8.222 11.923 13.627l-11.923 68.286v125.551c5.83-5.638 11.033-11.792 15.329-18.402h1.703c10.22 40.878 51.949 64.723 102.195 64.723 93.678 0 202.686-78.35 202.686-236.751-0.001-182.247-120.931-311.694-309.991-311.694z" fill="#8D0D38" p-id="17068"></path><path d="M256.177 534.959c0-189.059 143.072-311.693 286.145-311.693v-86.695c-210.921 5.768-383.229 164.394-383.229 401.797 0 224.828 160.105 327.023 332.132 327.023 17.551 0 34.543-0.982 51.097-3.015v-87.324c-13.491 2.213-26.8 3.474-39.174 3.474-127.745-0.001-246.97-74.944-246.97-243.565z" fill="#A9294B" p-id="17069"></path><path d="M535.508 551.992c-18.735 25.549-32.362 34.064-47.69 34.064-25.55 0-39.173-17.883-39.173-49.394 0-45.987 27.25-112.415 71.535-112.415 8.379 0 15.985 2.557 22.143 6.812v-93.835c-8.319-3.4-17.453-4.953-27.251-4.953-97.086 0-175.434 103.898-175.434 212.906 0 78.349 45.987 131.15 115.821 131.15 27.455 0 62.647-14.391 86.865-37.806v-125.55l-6.815 39.019z" fill="#A9294B" p-id="17070"></path></svg>