<?xml version="1.0" standalone="no"?><!DOCTYPE svg PUBLIC "-//W3C//DTD SVG 1.1//EN" "http://www.w3.org/Graphics/SVG/1.1/DTD/svg11.dtd"><svg t="1502116492001" class="icon" style="" viewBox="0 0 1024 1024" version="1.1" xmlns="http://www.w3.org/2000/svg" p-id="7596" xmlns:xlink="http://www.w3.org/1999/xlink" width="200" height="200"><defs><style type="text/css"></style></defs><path d="M947.2 683.008H251.904c-8.192 0-15.872 2.048-23.04 6.144-8.704 4.608-16.384 10.752-22.528 17.92-7.168 8.192-12.8 17.92-16.896 28.672-4.608 12.288-6.656 24.576-6.656 37.888 0 13.312 1.536 26.624 5.632 39.424 3.584 11.264 8.192 22.016 14.336 32.256 5.632 9.216 13.312 16.896 22.528 22.016 8.192 5.12 18.432 8.192 28.16 8.192H947.2c-8.192-8.192-15.36-17.408-20.992-27.136-6.144-9.728-10.752-20.48-14.336-31.232-4.608-13.312-6.656-27.136-6.656-40.96-1.024-25.6 6.144-50.688 20.992-71.168 5.632-8.704 12.8-15.872 20.992-22.016z m0 274.432c0 11.264-7.168 16.896-22.016 16.896H190.976c-19.968 0.512-39.936-4.096-57.344-14.336-15.36-9.728-28.672-23.04-37.888-38.912-10.24-18.432-17.408-37.888-20.48-58.88-4.096-24.064-6.144-48.64-6.144-73.216V206.848c0-51.712 13.824-89.088 40.96-112.128s66.56-34.816 117.76-34.816h195.584c34.304 0 69.12 0 104.96-0.512s70.656-0.512 104.96-0.512h199.68c33.792-1.024 65.536 15.36 84.48 43.52 9.728 14.848 17.408 31.232 21.504 48.64 5.12 19.456 7.68 39.936 7.68 60.416v406.528c-128 0-243.2-0.512-345.6-1.024h-128c-43.008 0-81.408 0-115.2-0.512s-61.952-0.512-83.968-0.512h-37.376c-14.848 0-29.184 4.608-40.96 12.8-14.336 9.216-26.112 20.48-36.352 34.304-11.264 15.36-19.968 32.256-26.112 50.176-6.656 19.456-10.24 39.424-10.24 59.904-0.512 23.552 3.072 46.592 10.752 68.608 6.144 18.944 15.36 36.352 27.648 51.712 10.24 13.312 23.04 24.064 37.888 32.768 12.288 7.168 26.112 11.264 40.448 11.776h686.08c5.12 0 10.24 1.536 14.336 4.608 5.12 3.584 7.68 9.216 7.168 14.848zM514.048 59.392v388.608l77.312-108.544 76.288 108.544V59.392h-153.6z" fill="#F120FF" p-id="7597"></path></svg>