<?xml version="1.0" standalone="no"?><!DOCTYPE svg PUBLIC "-//W3C//DTD SVG 1.1//EN" "http://www.w3.org/Graphics/SVG/1.1/DTD/svg11.dtd"><svg t="1502116748212" class="icon" style="" viewBox="0 0 1024 1024" version="1.1" xmlns="http://www.w3.org/2000/svg" p-id="14344" xmlns:xlink="http://www.w3.org/1999/xlink" width="200" height="200"><defs><style type="text/css"></style></defs><path d="M519.850666 211.77837C405.807408 211.77837 313.002666 304.583111 313.002666 418.62637 313.002666 532.66963 405.807408 625.474373 519.850666 625.474373 633.931854 625.474373 726.736595 532.66963 726.736595 418.62637 726.736595 304.583111 633.931854 211.77837 519.850666 211.77837" p-id="14345"></path><path d="M519.698963 23.855407C251.752296 23.855407 33.754074 241.85363 33.754074 509.800296 33.754074 777.746962 251.752296 995.745184 519.698963 995.745184 787.645627 995.745184 1005.643854 777.746962 1005.643854 509.800296 1005.643854 241.85363 787.645627 23.855407 519.698963 23.855407L519.698963 23.855407ZM778.24 827.733335 732.501335 748.695703C705.915259 699.657481 654.639405 669.127114 598.85037 669.127114L437.399704 669.127114C379.486815 669.127114 326.580148 702.046816 301.018074 754.043259L260.740741 827.467854C168.580741 752.184886 109.605926 637.800297 109.605926 509.800296 109.605926 283.685926 293.546666 99.707259 519.698963 99.707259 745.813335 99.707259 929.792 283.685926 929.792 509.800296 929.792 637.989924 870.627557 752.488297 778.24 827.733335L778.24 827.733335Z" p-id="14346"></path></svg>