<?xml version="1.0" standalone="no"?><!DOCTYPE svg PUBLIC "-//W3C//DTD SVG 1.1//EN" "http://www.w3.org/Graphics/SVG/1.1/DTD/svg11.dtd"><svg t="1502105013956" class="icon" style="" viewBox="0 0 1024 1024" version="1.1" xmlns="http://www.w3.org/2000/svg" p-id="12999" xmlns:xlink="http://www.w3.org/1999/xlink" width="200" height="200"><defs><style type="text/css"></style></defs><path d="M486.132101 963.938235H114.388553c-54.468787 0-98.781614-44.344827-98.781614-98.812614V131.139488c0-54.467787 44.312827-98.812614 98.781614-98.812614l794.726896 1.086995c54.467787 0 98.781614 44.344827 98.781614 98.812614v506.145023c0 8.569967-6.955973 15.525939-15.526939 15.52594s-15.526939-6.955973-15.52694-15.52594V132.226483c0-37.357854-30.369881-67.759735-67.728735-67.759735l-794.726896-1.085996c-37.356854 0-67.727735 30.401881-67.727735 67.759736V865.15662c0 37.356854 30.370881 67.759735 67.728735 67.759736h371.743548c8.539967 0 15.526939 6.954973 15.526939 15.525939s-6.986973 15.495939-15.526939 15.49594z" p-id="13000"></path><path d="M172.551326 182.875286c2.45399 6.303975 6.024976 12.327952 13.974945 24.687903l86.701662 129.773493c3.011988 4.657982 11.241956 18.103929 17.82493 29.904883-1.086996-21.954914-1.645994-34.003867-1.645993-36.488857V214.426162c0-13.446947-0.589998-21.954914-2.204992-31.550876h25.5269c-1.645994 9.874961-2.173992 17.544931-2.173991 31.549876V360.658591c0 13.725946 0.558998 21.954914 2.204991 30.71188h-29.935883c-3.819985-7.949969-6.862973-13.445947-14.253944-24.686903L180.501295 234.455084c-2.172992-3.290987-11.240956-18.941926-15.091941-26.332897 1.117996 12.88695 1.676993 26.332897 1.676993 33.444869v117.134543c0 14.532943 0.559998 23.599908 2.173992 32.636872h-25.494901c1.645994-8.787966 2.172992-18.383928 2.172992-32.636872V213.587166c0-12.638951-0.558998-20.836919-2.172992-30.74288h28.786888zM367.724564 320.598748c0.806997 18.383928 3.539986 28.537889 10.992957 38.41285 8.756966 12.079953 22.202913 18.663927 38.661849 18.663927 22.234913 0 37.605853-10.992957 45.275823-32.109875l19.191925 7.66997c-5.21698 11.520955-8.756966 16.458936-15.060941 22.762911-12.91895 12.607951-29.625884 19.221925-49.686806 19.221925-43.070832 0-70.242726-30.183882-70.242726-77.633697 0-46.922817 26.891895-77.634697 68.038734-77.634696 35.400862 0 60.895762 22.761911 66.392741 59.529767 0.279999 3.011988 1.365995 13.725946 1.924992 21.116918h-115.489548z m93.533634-17.296933c-1.676993-15.37194-5.775977-25.246901-14.563943-33.724868-8.477967-8.228968-19.190925-12.327952-32.357874-12.327952-16.737935 0-30.74388 8.477967-38.972847 23.879907-3.849985 6.862973-5.21698 11.799954-6.862973 22.203913h92.757637zM638.605505 391.369471c-1.085996-5.775977-3.011988-12.88695-5.464978-20.587919l-26.892895-79.808689c-0.558998-1.365995-1.924992-7.110972-4.657982-17.296932-2.172992 7.70197-4.409983 15.092941-5.21698 17.82493l-26.612896 79.279691c-2.763989 7.949969-4.936981 15.930938-5.775977 20.589919h-19.221925c-1.645994-6.862973-1.645994-7.390971-6.024976-20.837918l-29.345886-94.651631c-3.259987-10.15396-7.66997-23.04191-10.961957-32.357873h25.246901c0.559998 8.508967 2.45299 17.82493 6.303976 29.904883l20.029922 68.317733c1.396995 4.657982 3.042988 10.433959 4.93698 20.029922 1.645994-6.303975 4.937981-17.296932 5.775978-19.749923l26.085898-77.634697c2.979988-8.259968 4.874981-15.960938 5.464978-20.898918h18.383929c0.806997 4.937981 2.732989 12.638951 5.496978 20.867918l26.332897 79.000692c0.807997 2.48399 2.48399 8.508967 3.570986 12.328952 1.086996 4.129984 1.086996 4.129984 1.645994 6.023976 2.45299-10.682958 3.849985-16.985934 4.409983-18.662927l20.557919-69.684728c3.569986-11.799954 5.495979-21.954914 6.023977-29.904883h24.997902c-2.204991 5.775977-5.775977 16.737935-10.712958 32.357874l-29.625884 94.931629c-3.569986 10.992957-4.657982 15.091941-5.775978 20.587919h-18.973926zM748.194077 1023.996H707.049238c-18.383928 0-33.31987-14.905942-33.31987-33.28987v-24.624904c0-5.775977-5.18698-12.79495-10.713958-14.502943l-35.587861-14.563943c-8.073968-4.253983-14.936942-1.831993-18.724927 1.956992l-17.576931 17.575931c-12.514951 12.483951-34.499865 12.483951-47.076816 0l-29.128886-29.159886c-12.91795-13.010949-12.91795-34.127867-0.031-47.107816l17.513931-17.545931c4.067984-4.004984 5.341979-12.606951 2.60899-17.699931l-14.749942-35.587861c-2.080992-6.551974-9.129964-11.737954-14.906942-11.769954h-24.655904c-18.383928 0-33.32087-14.904942-33.32087-33.31987v-41.145839c0-18.383928 14.936942-33.28987 33.31987-33.28987h24.719904c5.744978 0 12.79395-5.18598 14.501943-10.682958l14.563943-35.586861c3.291987-6.179976 2.017992-14.781942-2.018992-18.787927l-17.482932-17.513931c-13.010949-12.979949-13.010949-34.159867 0-47.139816l29.097887-29.127887c12.575951-12.545951 34.562865-12.545951 47.107816 0l17.545931 17.482932c3.880985 3.881985 12.91795 5.21698 17.637931 2.63999l35.618861-14.719943c6.582974-2.079992 11.769954-9.159964 11.769954-14.936941v-24.687904c0-18.352928 14.935942-33.31987 33.31987-33.31987h41.145839c18.383928 0 33.32087 14.935942 33.32087 33.31987v24.687904c0 5.775977 5.18598 12.85595 10.682958 14.532943l35.524862 14.563943c7.980969 4.068984 15.029941 1.769993 18.818926-2.049992l17.513932-17.512932c12.639951-12.545951 34.562865-12.514951 47.139816 0l29.128886 29.127887c13.010949 12.979949 13.010949 34.159867 0.03 47.139816l-17.575932 17.513931c-3.974984 4.005984-5.24798 12.607951-2.54599 17.638931l14.719943 35.649861c2.079992 6.551974 9.190964 11.768954 14.935941 11.768954h24.687904c18.383928 0 33.28987 14.905942 33.28987 33.28987v41.176839c0 18.383928-14.905942 33.31987-33.28987 33.31987H949.918289c-5.806977 0-12.85595 5.18698-14.563943 10.713958l-14.563943 35.494861c-3.229987 6.241976-1.987992 14.874942 2.049992 18.911927l17.481932 17.482931c13.011949 12.979949 13.011949 34.159867 0 47.139816l-29.127886 29.127886c-12.576951 12.545951-34.531865 12.545951-47.139816 0.062l-17.482932-17.575931c-3.726985-3.757985-12.88695-5.15498-17.607931-2.54699l-35.679861 14.781942c-6.583974 2.079992-11.769954 9.129964-11.769954 14.874942v24.624904c0.031 18.259929-14.936942 33.19687-33.31987 33.19687zM619.819579 909.501447c6.707974 0 13.135949 1.551994 18.569927 4.532983l33.25887 13.601946c14.998941 4.564982 27.575892 21.643915 27.575893 38.44485v24.624904c0 4.254983 3.601986 7.825969 7.855969 7.825969h41.145839c4.285983 0 7.856969-3.570986 7.85697-7.825969v-24.624904c0-16.769934 12.545951-33.849868 28.599888-38.848848l33.414869-13.787946c11.240956-6.303975 35.027863-3.942985 46.579818 7.54597l17.483932 17.545932c2.856989 2.825989 8.104968 2.856989 11.116957-0.062l29.096886-29.128886c3.074988-3.073988 3.074988-8.042969 0-11.085957l-17.513932-17.513931c-11.893954-11.893954-14.967942-32.885872-7.017972-47.698814l13.600947-33.31987c4.626982-14.968942 21.706915-27.513893 38.506849-27.513892h24.687904c4.253983 0 7.825969-3.571986 7.825969-7.85697v-41.176839c0-4.254983-3.571986-7.825969-7.825969-7.825969h-24.687904c-16.768934 0-33.879868-12.545951-38.909848-28.599889l-13.756946-33.445869c-7.390971-13.600947-4.316983-34.561865 7.545971-46.517818l17.575931-17.514932c3.043988-3.042988 3.043988-8.041969-0.03-11.085957l-29.129886-29.127886c-2.949988-2.919989-8.196968-2.887989-11.146957 0.03l-17.483931 17.483932c-11.458955 11.520955-33.19587 14.874942-47.697814 7.049972l-33.25987-13.601947c-14.966942-4.564982-27.543892-21.613916-27.543893-38.475849v-24.687904c0-4.253983-3.570986-7.824969-7.855969-7.824969H707.109238c-4.253983 0-7.855969 3.569986-7.855969 7.824969v24.687904c0 16.830934-12.576951 33.909868-28.631889 38.847848l-33.351869 13.756946c-11.334956 6.303975-35.028863 3.943985-46.549818-7.60797l-17.513932-17.482932c-2.980988-3.011988-8.135968-2.949988-11.116957 0l-29.066886 29.096887c-3.011988 3.011988-3.011988 8.135968 0 11.085956l17.483932 17.514932c11.986953 11.892954 15.059941 32.916871 7.079972 47.729813l-13.601947 33.28987c-4.595982 14.966942-21.674915 27.543892-38.47485 27.543893h-24.687903c-4.253983 0-7.856969 3.570986-7.85697 7.825969v41.145839c0 4.284983 3.602986 7.855969 7.85697 7.85597h24.687903c16.861934 0.032 33.879868 12.607951 38.816849 28.631888l13.818946 33.38287c7.421971 13.725946 4.284983 34.686865-7.63997 46.611817l-17.482932 17.482932c-3.011988 2.980988-3.011988 8.135968 0 11.116957l29.128886 29.128886c2.949988 2.887989 8.135968 2.949988 11.054957 0l17.545931-17.545931c7.109972-7.172972 17.97993-11.457955 29.065887-11.457956z m107.849579-50.182804c-63.753751 0-115.644548-51.859797-115.644549-115.613548s51.890797-115.612548 115.644549-115.612548 115.643548 51.859797 115.643548 115.612548-51.889797 115.613548-115.643548 115.613548z m0-205.731196c-49.716806 0-90.149648 40.400842-90.149648 90.117648 0 49.716806 40.463842 90.117648 90.149648 90.117648 49.747806 0 90.149648-40.431842 90.149647-90.117648 0.03-49.716806-40.401842-90.117648-90.149647-90.117648z" p-id="13001"></path></svg>