<?xml version="1.0" standalone="no"?><!DOCTYPE svg PUBLIC "-//W3C//DTD SVG 1.1//EN" "http://www.w3.org/Graphics/SVG/1.1/DTD/svg11.dtd"><svg t="1502107866184" class="icon" style="" viewBox="0 0 1024 1024" version="1.1" xmlns="http://www.w3.org/2000/svg" p-id="26659" xmlns:xlink="http://www.w3.org/1999/xlink" width="200" height="200"><defs><style type="text/css"></style></defs><path d="M512.348 514.732m-447.856 0a447.856 447.856 0 1 0 895.712 0 447.856 447.856 0 1 0-895.712 0Z" fill="#FFFFFF" p-id="26660"></path><path d="M610.161 849.635H414.577c-49.061 0-88.974-37.274-88.974-83.092V357.791c0-39.259 29.744-73.043 70.264-81.159v-61.116l0.046-0.429c2.267-20.963 17.488-30.511 30.67-30.511 7.417 0 14.473 2.848 19.867 8.02 5.747 5.509 9.287 13.301 10.237 22.533l0.042 0.819v58.774H610.16c49.06 0 88.973 37.265 88.973 83.069v408.752c0.001 45.817-39.912 83.092-88.972 83.092z m-198.294-633.23v74.111l-7.023 0.864c-36.053 4.433-63.24 32.984-63.24 66.411v408.752c0 36.994 32.736 67.092 72.974 67.092h195.584c40.237 0 72.973-30.098 72.973-67.092V357.791c0-36.982-32.735-67.069-72.973-67.069H440.73v-74.339c-1.116-9.616-6.639-15.807-14.146-15.807-6.397 0-13.381 4.899-14.717 15.829z" fill="#717071" p-id="26661"></path><path d="M632.444 551.495c0 9.739-8.507 17.627-18.997 17.627H416.871c-10.497 0-19.009-7.888-19.009-17.627V369.238c0-9.727 8.512-17.625 19.009-17.625h196.576c10.49 0 18.997 7.899 18.997 17.625v182.257z" fill="#0085F6" p-id="26662"></path><path d="M454.928 771.525h-20.176c-12.643 0-22.921-9.5-22.921-21.235s10.278-21.222 22.921-21.222h20.176c12.623 0 22.889 9.487 22.889 21.222 0 11.735-10.266 21.235-22.889 21.235zM454.928 677.23h-20.176c-12.643 0-22.921-9.488-22.921-21.222 0-11.735 10.278-21.223 22.921-21.223h20.176c12.623 0 22.889 9.488 22.889 21.223 0 11.733-10.266 21.222-22.889 21.222zM595.558 771.538h-20.156c-12.663 0-22.914-9.5-22.914-21.247 0-11.746 10.251-21.234 22.914-21.234h20.156c12.663 0 22.915 9.488 22.915 21.234 0.001 11.746-10.252 21.247-22.915 21.247zM595.558 677.242h-20.156c-12.663 0-22.914-9.488-22.914-21.234 0-11.747 10.251-21.235 22.914-21.235h20.156c12.663 0 22.915 9.488 22.915 21.235 0.001 11.746-10.252 21.234-22.915 21.234z" fill="#717071" p-id="26663"></path></svg>