<?xml version="1.0" standalone="no"?><!DOCTYPE svg PUBLIC "-//W3C//DTD SVG 1.1//EN" "http://www.w3.org/Graphics/SVG/1.1/DTD/svg11.dtd"><svg t="1502104180322" class="icon" style="" viewBox="0 0 1024 1024" version="1.1" xmlns="http://www.w3.org/2000/svg" p-id="1509" xmlns:xlink="http://www.w3.org/1999/xlink" width="200" height="200"><defs><style type="text/css"></style></defs><path d="M1008 975.552c0 17.664-12.224 32.128-27.648 32.128H43.648c-15.232 0-27.648-14.464-27.648-32.128V48.384C16 30.656 28.352 16.32 43.648 16.32h936.704c15.36 0 27.712 14.336 27.712 32.064l-0.064 927.168z" fill="#FAD97F" p-id="1510"></path><path d="M980.352 1023.68H43.648c-24.064 0-43.648-21.568-43.648-48.128V48.384C0 21.888 19.584 0.32 43.648 0.32h936.704c24.064 0 43.712 21.568 43.712 48.064L1024 975.552c0 26.56-19.584 48.128-43.648 48.128zM43.648 32.32C37.312 32.32 32 39.68 32 48.384v927.168c0 8.576 5.44 16.128 11.648 16.128h936.704c6.336 0 11.648-7.36 11.648-16.128L992.064 48.384c0-8.704-5.376-16.064-11.712-16.064H43.648z" fill="#020202" p-id="1511"></path><path d="M347.456 132.8h329.216v94.528H347.456z" fill="#F2385A" p-id="1512"></path><path d="M692.672 243.328H331.456V116.8h361.216v126.528z m-329.216-32h297.216v-62.528H363.456v62.528z" fill="" p-id="1513"></path><path d="M82.752 346.624h164.544v94.464H82.752z" fill="#9DE8F7" p-id="1514"></path><path d="M263.296 457.088H66.752V330.624h196.544v126.464z m-164.544-32h132.544v-62.464H98.752v62.464z" fill="" p-id="1515"></path><path d="M313.216 346.624h628.16v94.464H313.216z" fill="#9DE8F7" p-id="1516"></path><path d="M957.376 457.088H297.216V330.624h660.16v126.464z m-628.16-32h596.16v-62.464H329.216v62.464z" fill="" p-id="1517"></path><path d="M82.752 572.032h164.544v94.592H82.752z" fill="#9DE8F7" p-id="1518"></path><path d="M263.296 682.56H66.752V556.032h196.544v126.528z m-164.544-32h132.544v-62.528H98.752v62.528z" fill="" p-id="1519"></path><path d="M313.216 572.032h628.16v94.592H313.216z" fill="#9DE8F7" p-id="1520"></path><path d="M957.376 682.56H297.216V556.032h660.16v126.528z m-628.16-32h596.16v-62.528H329.216v62.528z" fill="" p-id="1521"></path><path d="M82.752 797.312h164.544v94.592H82.752z" fill="#9DE8F7" p-id="1522"></path><path d="M263.296 907.904H66.752v-126.592h196.544v126.592z m-164.544-32h132.544v-62.592H98.752v62.592z" fill="" p-id="1523"></path><path d="M313.216 797.312h628.16v94.592H313.216z" fill="#9DE8F7" p-id="1524"></path><path d="M957.376 907.904H297.216v-126.592h660.16v126.592z m-628.16-32h596.16v-62.592H329.216v62.592z" fill="" p-id="1525"></path></svg>